<svg version="1.1" viewBox="0.0 0.0 1280.0 960.0" fill="none" stroke="none" stroke-linecap="square" stroke-miterlimit="10" xmlns:xlink="http://www.w3.org/1999/xlink" xmlns="http://www.w3.org/2000/svg"><clipPath id="p.0"><path d="m0 0l1280.0 0l0 960.0l-1280.0 0l0 -960.0z" clip-rule="nonzero"/></clipPath><g clip-path="url(#p.0)"><path fill="#000000" fill-opacity="0.0" d="m0 0l1280.0 0l0 960.0l-1280.0 0z" fill-rule="evenodd"/><path fill="#000000" d="m0 0l1175.3071 0l0 977.2913l-1175.3071 0z" fill-rule="evenodd"/><path stroke="#000000" stroke-width="1.0" stroke-linejoin="round" stroke-linecap="butt" d="m0 0l1175.3071 0l0 977.2913l-1175.3071 0z" fill-rule="evenodd"/><path fill="#ffffff" d="m46.875 385.68317l0 -11.25l29.0625 0l0 26.609375q-4.234375 4.09375 -12.28125 7.21875q-8.03125 3.125 -16.28125 3.125q-10.484375 0 -18.28125 -4.390625q-7.796875 -4.40625 -11.71875 -12.578125q-3.90625 -8.1875 -3.90625 -17.796875q0 -10.4375 4.375 -18.546875q4.375 -8.125 12.796875 -12.453125q6.4375 -3.328125 16.0 -3.328125q12.4375 0 19.4375 5.21875q7.0 5.21875 9.0 14.4375l-13.40625 2.5q-1.40625 -4.921875 -5.3125 -7.765625q-3.890625 -2.859375 -9.71875 -2.859375q-8.84375 0 -14.0625 5.609375q-5.21875 5.609375 -5.21875 16.640625q0 11.890625 5.28125 17.84375q5.296875 5.9375 13.859375 5.9375q4.25 0 8.5 -1.65625q4.265625 -1.671875 7.3125 -4.046875l0 -8.46875l-15.4375 0zm69.43736 9.15625l12.765625 2.140625q-2.453125 7.015625 -7.765625 10.6875q-5.3125 3.671875 -13.28125 3.671875q-12.625 0 -18.6875 -8.25q-4.78125 -6.609375 -4.78125 -16.671875q0 -12.03125 6.28125 -18.84375q6.296875 -6.8125 15.90625 -6.8125q10.796875 0 17.03125 7.140625q6.25 7.125 5.984375 21.84375l-32.078125 0q0.125 5.6875 3.078125 8.859375q2.96875 3.171875 7.390625 3.171875q3.015625 0 5.0625 -1.640625q2.046875 -1.640625 3.09375 -5.296875zm0.734375 -12.9375q-0.140625 -5.5625 -2.875 -8.453125q-2.734375 -2.890625 -6.65625 -2.890625q-4.1875 0 -6.921875 3.046875q-2.734375 3.0625 -2.6875 8.296875l19.140625 0zm20.185913 3.46875q0 -6.390625 3.140625 -12.359375q3.15625 -5.96875 8.921875 -9.109375q5.765625 -3.140625 12.859375 -3.140625q10.984375 0 18.0 7.140625q7.03125 7.125 7.03125 18.015625q0 10.96875 -7.09375 18.203125q-7.078125 7.21875 -17.84375 7.21875q-6.640625 0 -12.6875 -3.0q-6.03125 -3.015625 -9.1875 -8.828125q-3.140625 -5.8125 -3.140625 -14.140625zm13.125 0.671875q0 7.203125 3.421875 11.03125q3.421875 3.828125 8.421875 3.828125q5.015625 0 8.40625 -3.828125q3.40625 -3.828125 3.40625 -11.109375q0 -7.109375 -3.40625 -10.9375q-3.390625 -3.828125 -8.40625 -3.828125q-5.0 0 -8.421875 3.828125q-3.421875 3.828125 -3.421875 11.015625zm45.883545 -24.1875l11.8125 0l0 6.609375q6.328125 -7.703125 15.078125 -7.703125q4.65625 0 8.0625 1.921875q3.421875 1.90625 5.609375 5.78125q3.1875 -3.875 6.875 -5.78125q3.703125 -1.921875 7.890625 -1.921875q5.3281403 0 9.01564 2.171875q3.703125 2.15625 5.515625 6.34375q1.328125 3.09375 1.328125 10.03125l0 30.9375l-12.79689 0l0 -27.65625q0 -7.203125 -1.328125 -9.296875q-1.78125 -2.734375 -5.46875 -2.734375q-2.6875 0 -5.0625 1.640625q-2.359375 1.640625 -3.421875 4.8125q-1.046875 3.15625 -1.046875 10.0l0 23.234375l-12.796875 0l0 -26.515625q0 -7.0625 -0.6875 -9.109375q-0.6875 -2.0625 -2.125 -3.0625q-1.421875 -1.0 -3.890625 -1.0q-2.953125 0 -5.328125 1.59375q-2.375 1.59375 -3.40625 4.609375q-1.015625 3.0 -1.015625 9.96875l0 23.515625l-12.8125 0l0 -48.390625zm111.96803 32.984375l12.765625 2.140625q-2.453125 7.015625 -7.765625 10.6875q-5.3125 3.671875 -13.28125 3.671875q-12.625 0 -18.6875 -8.25q-4.78125 -6.609375 -4.78125 -16.671875q0 -12.03125 6.28125 -18.84375q6.296875 -6.8125 15.90625 -6.8125q10.796875 0 17.03125 7.140625q6.25 7.125 5.984375 21.84375l-32.078125 0q0.125 5.6875 3.078125 8.859375q2.96875 3.171875 7.390625 3.171875q3.015625 0 5.0625 -1.640625q2.046875 -1.640625 3.09375 -5.296875zm0.734375 -12.9375q-0.140625 -5.5625 -2.875 -8.453125q-2.734375 -2.890625 -6.65625 -2.890625q-4.1875 0 -6.921875 3.046875q-2.734375 3.0625 -2.6875 8.296875l19.140625 0zm45.342163 -20.046875l0 10.203125l-8.75 0l0 19.5q0 5.921875 0.25 6.90625q0.25 0.984375 1.140625 1.625q0.890625 0.625 2.171875 0.625q1.765625 0 5.140625 -1.21875l1.09375 9.9375q-4.46875 1.90625 -10.109375 1.90625q-3.46875 0 -6.25 -1.15625q-2.78125 -1.171875 -4.078125 -3.015625q-1.296875 -1.84375 -1.796875 -4.984375q-0.40625 -2.234375 -0.40625 -9.03125l0 -21.09375l-5.890625 0l0 -10.203125l5.890625 0l0 -9.625l12.84375 -7.46875l0 17.09375l8.75 0zm21.14148 48.390625l-12.796875 0l0 -48.390625l11.890625 0l0 6.875q3.046875 -4.875 5.484375 -6.421875q2.4375 -1.546875 5.546875 -1.546875q4.375 0 8.421875 2.40625l-3.953125 11.171875q-3.25 -2.09375 -6.015625 -2.09375q-2.703125 0 -4.578125 1.484375q-1.859375 1.46875 -2.9375 5.34375q-1.0625 3.875 -1.0625 16.21875l0 14.953125zm24.06958 -54.953125l0 -11.859375l12.796875 0l0 11.859375l-12.796875 0zm0 54.953125l0 -48.390625l12.796875 0l0 48.390625l-12.796875 0zm68.117065 -34.09375l-12.609375 2.28125q-0.640625 -3.78125 -2.90625 -5.6875q-2.25 -1.921875 -5.84375 -1.921875q-4.796875 0 -7.640625 3.3125q-2.84375 3.296875 -2.84375 11.046875q0 8.609375 2.890625 12.171875q2.890625 3.546875 7.765625 3.546875q3.65625 0 5.96875 -2.0625q2.328125 -2.078125 3.28125 -7.140625l12.578125 2.140625q-1.953125 8.65625 -7.515625 13.078125q-5.5625 4.421875 -14.90625 4.421875q-10.609375 0 -16.921875 -6.6875q-6.3125 -6.703125 -6.3125 -18.5625q0 -11.984375 6.328125 -18.65625q6.34375 -6.671875 17.140625 -6.671875q8.84375 0 14.0625 3.8125q5.21875 3.796875 7.484375 11.578125zm80.02173 34.09375l-11.890625 0l0 -7.109375q-2.953125 4.140625 -7.0 6.171875q-4.03125 2.03125 -8.125 2.03125q-8.34375 0 -14.296875 -6.71875q-5.9375 -6.71875 -5.9375 -18.75q0 -12.3125 5.78125 -18.703125q5.796875 -6.40625 14.640625 -6.40625q8.109375 0 14.03125 6.734375l0 -24.0625l12.796875 0l0 66.8125zm-34.171875 -25.25q0 7.75 2.140625 11.21875q3.09375 5.015625 8.65625 5.015625q4.421875 0 7.515625 -3.765625q3.109375 -3.765625 3.109375 -11.234375q0 -8.34375 -3.015625 -12.0q-3.0 -3.671875 -7.703125 -3.671875q-4.546875 0 -7.625 3.625q-3.078125 3.609375 -3.078125 10.8125zm74.821045 9.84375l12.765625 2.140625q-2.453125 7.015625 -7.765625 10.6875q-5.3125 3.671875 -13.28125 3.671875q-12.625 0 -18.6875 -8.25q-4.78125 -6.609375 -4.78125 -16.671875q0 -12.03125 6.28125 -18.84375q6.296875 -6.8125 15.90625 -6.8125q10.796875 0 17.03125 7.140625q6.25 7.125 5.984375 21.84375l-32.078125 0q0.125 5.6875 3.078125 8.859375q2.96875 3.171875 7.390625 3.171875q3.015625 0 5.0625 -1.640625q2.046875 -1.640625 3.09375 -5.296875zm0.734375 -12.9375q-0.140625 -5.5625 -2.875 -8.453125q-2.734375 -2.890625 -6.65625 -2.890625q-4.1875 0 -6.921875 3.046875q-2.734375 3.0625 -2.6875 8.296875l19.140625 0zm51.170288 12.9375l12.765625 2.140625q-2.453125 7.015625 -7.765625 10.6875q-5.3125 3.671875 -13.28125 3.671875q-12.625 0 -18.6875 -8.25q-4.78125 -6.609375 -4.78125 -16.671875q0 -12.03125 6.28125 -18.84375q6.296875 -6.8125 15.90625 -6.8125q10.796875 0 17.03125 7.140625q6.25 7.125 5.984375 21.84375l-32.078125 0q0.125 5.6875 3.078125 8.859375q2.96875 3.171875 7.390625 3.171875q3.015625 0 5.0625 -1.640625q2.046875 -1.640625 3.09375 -5.296875zm0.734375 -12.9375q-0.140625 -5.5625 -2.875 -8.453125q-2.734375 -2.890625 -6.65625 -2.890625q-4.1875 0 -6.921875 3.046875q-2.734375 3.0625 -2.6875 8.296875l19.140625 0zm22.779663 -20.046875l11.953125 0l0 7.109375q2.3125 -3.65625 6.28125 -5.921875q3.96875 -2.28125 8.796875 -2.28125q8.421875 0 14.296875 6.609375q5.890625 6.59375 5.890625 18.40625q0 12.125 -5.921875 18.84375q-5.921875 6.71875 -14.359375 6.71875q-4.015625 0 -7.28125 -1.59375q-3.25 -1.59375 -6.84375 -5.46875l0 24.375l-12.8125 0l0 -66.796875zm12.671875 23.375q0 8.15625 3.234375 12.0625q3.234375 3.890625 7.890625 3.890625q4.46875 0 7.421875 -3.578125q2.96875 -3.578125 2.96875 -11.734375q0 -7.609375 -3.0625 -11.296875q-3.046875 -3.703125 -7.5625 -3.703125q-4.6875 0 -7.796875 3.625q-3.09375 3.625 -3.09375 10.734375zm70.641235 25.015625l0 -66.8125l12.796875 0l0 66.8125l-12.796875 0zm53.94519 -15.40625l12.765625 2.140625q-2.453125 7.015625 -7.765625 10.6875q-5.3125 3.671875 -13.28125 3.671875q-12.625 0 -18.6875 -8.25q-4.78125 -6.609375 -4.78125 -16.671875q0 -12.03125 6.28125 -18.84375q6.296875 -6.8125 15.90625 -6.8125q10.796875 0 17.03125 7.140625q6.25 7.125 5.984375 21.84375l-32.078125 0q0.125 5.6875 3.078125 8.859375q2.96875 3.171875 7.390625 3.171875q3.015625 0 5.0625 -1.640625q2.046875 -1.640625 3.09375 -5.296875zm0.734375 -12.9375q-0.140625 -5.5625 -2.875 -8.453125q-2.734375 -2.890625 -6.65625 -2.890625q-4.1875 0 -6.921875 3.046875q-2.734375 3.0625 -2.6875 8.296875l19.140625 0zm32.717163 -5.28125l-11.625 -2.109375q1.96875 -7.015625 6.75 -10.375q4.78125 -3.375 14.21875 -3.375q8.5625 0 12.75 2.03125q4.203125 2.015625 5.90625 5.140625q1.71875 3.125 1.71875 11.46875l-0.140625 14.9375q0 6.375 0.609375 9.40625q0.625 3.03125 2.3125 6.5l-12.671875 0q-0.5 -1.28125 -1.234375 -3.78125q-0.3125 -1.140625 -0.453125 -1.5q-3.28125 3.1875 -7.015625 4.78125q-3.734375 1.59375 -7.984375 1.59375q-7.46875 0 -11.78125 -4.046875q-4.296875 -4.0625 -4.296875 -10.265625q0 -4.09375 1.953125 -7.296875q1.96875 -3.21875 5.5 -4.921875q3.53125 -1.71875 10.1875 -3.0q8.96875 -1.6875 12.4375 -3.140625l0 -1.28125q0 -3.6875 -1.828125 -5.25q-1.828125 -1.578125 -6.875 -1.578125q-3.421875 0 -5.34375 1.34375q-1.90625 1.34375 -3.09375 4.71875zm17.140625 10.390625q-2.46875 0.8125 -7.796875 1.953125q-5.328125 1.140625 -6.96875 2.234375q-2.515625 1.78125 -2.515625 4.515625q0 2.6875 2.0 4.65625q2.015625 1.953125 5.109375 1.953125q3.46875 0 6.609375 -2.28125q2.328125 -1.734375 3.0625 -4.25q0.5 -1.640625 0.5 -6.234375l0 -2.546875zm37.451538 23.234375l-12.796875 0l0 -48.390625l11.890625 0l0 6.875q3.046875 -4.875 5.484375 -6.421875q2.4375 -1.546875 5.546875 -1.546875q4.375 0 8.421875 2.40625l-3.953125 11.171875q-3.25 -2.09375 -6.015625 -2.09375q-2.703125 0 -4.578125 1.484375q-1.859375 1.46875 -2.9375 5.34375q-1.0625 3.875 -1.0625 16.21875l0 14.953125zm68.085205 0l-12.796875 0l0 -24.703125q0 -7.828125 -0.828125 -10.125q-0.8125 -2.3125 -2.671875 -3.578125q-1.84375 -1.28125 -4.4375 -1.28125q-3.328125 0 -5.96875 1.828125q-2.640625 1.8125 -3.625 4.828125q-0.984375 3.0 -0.984375 11.109375l0 21.921875l-12.796875 0l0 -48.390625l11.890625 0l0 7.109375q6.328125 -8.203125 15.953125 -8.203125q4.234375 0 7.734375 1.53125q3.515625 1.515625 5.3125 3.890625q1.8125 2.359375 2.515625 5.375q0.703125 3.0 0.703125 8.609375l0 30.078125zm12.99292 -54.953125l0 -11.859375l12.796875 0l0 11.859375l-12.796875 0zm0 54.953125l0 -48.390625l12.796875 0l0 48.390625l-12.796875 0zm69.94519 0l-12.796875 0l0 -24.703125q0 -7.828125 -0.828125 -10.125q-0.8125 -2.3125 -2.671875 -3.578125q-1.84375 -1.28125 -4.4375 -1.28125q-3.328125 0 -5.96875 1.828125q-2.640625 1.8125 -3.625 4.828125q-0.984375 3.0 -0.984375 11.109375l0 21.921875l-12.796875 0l0 -48.390625l11.890625 0l0 7.109375q6.328125 -8.203125 15.953125 -8.203125q4.234375 0 7.734375 1.53125q3.515625 1.515625 5.3125 3.890625q1.8125 2.359375 2.515625 5.375q0.703125 3.0 0.703125 8.609375l0 30.078125zm11.80542 3.1875l14.625 1.78125q0.359375 2.546875 1.6875 3.5q1.828125 1.375 5.734375 1.375q5.015625 0 7.53125 -1.5q1.6875 -1.0 2.546875 -3.234375q0.59375 -1.59375 0.59375 -5.890625l0 -7.0625q-5.75 7.84375 -14.5 7.84375q-9.75 0 -15.4375 -8.25q-4.46875 -6.515625 -4.46875 -16.21875q0 -12.171875 5.859375 -18.59375q5.859375 -6.421875 14.5625 -6.421875q8.96875 0 14.796875 7.875l0 -6.78125l11.984375 0l0 43.421875q0 8.5625 -1.40625 12.796875q-1.40625 4.25 -3.96875 6.65625q-2.546875 2.421875 -6.8125 3.78125q-4.25 1.375 -10.765625 1.375q-12.3125 0 -17.46875 -4.21875q-5.140625 -4.21875 -5.140625 -10.6875q0 -0.640625 0.046875 -1.546875zm11.4375 -28.390625q0 7.703125 2.984375 11.28125q2.984375 3.578125 7.359375 3.578125q4.6875 0 7.921875 -3.671875q3.25 -3.671875 3.25 -10.859375q0 -7.53125 -3.109375 -11.171875q-3.09375 -3.640625 -7.828125 -3.640625q-4.609375 0 -7.59375 3.578125q-2.984375 3.578125 -2.984375 10.90625z" fill-rule="nonzero"/><path fill="#ffffff" d="m12.734375 497.37067q0 -6.390625 3.140625 -12.359375q3.15625 -5.96875 8.921875 -9.109375q5.765625 -3.140625 12.859375 -3.140625q10.984375 0 18.0 7.140625q7.03125 7.125 7.03125 18.015625q0 10.96875 -7.09375 18.203125q-7.078125 7.21875 -17.84375 7.21875q-6.640625 0 -12.6875 -3.0q-6.03125 -3.015625 -9.1875 -8.828125q-3.140625 -5.8125 -3.140625 -14.140625zm13.125 0.671875q0 7.203125 3.421875 11.03125q3.421875 3.828125 8.421875 3.828125q5.015625 0 8.40625 -3.828125q3.40625 -3.828125 3.40625 -11.109375q0 -7.109375 -3.40625 -10.9375q-3.390625 -3.828125 -8.40625 -3.828125q-5.0 0 -8.421875 3.828125q-3.421875 3.828125 -3.421875 11.015625zm41.24292 -24.1875l7.109375 0l0 -3.65625q0 -6.09375 1.296875 -9.09375q1.296875 -3.015625 4.78125 -4.90625q3.484375 -1.90625 8.828125 -1.90625q5.46875 0 10.703125 1.640625l-1.734375 8.9375q-3.046875 -0.734375 -5.875 -0.734375q-2.78125 0 -3.984375 1.3125q-1.203125 1.296875 -1.203125 4.984375l0 3.421875l9.5625 0l0 10.0625l-9.5625 0l0 38.328125l-12.8125 0l0 -38.328125l-7.109375 0l0 -10.0625zm62.24292 0l11.953125 0l0 7.109375q2.3125 -3.65625 6.28125 -5.921875q3.96875 -2.28125 8.796875 -2.28125q8.421875 0 14.296875 6.609375q5.890625 6.59375 5.890625 18.40625q0 12.125 -5.921875 18.84375q-5.921875 6.71875 -14.359375 6.71875q-4.015625 0 -7.28125 -1.59375q-3.25 -1.59375 -6.84375 -5.46875l0 24.375l-12.8125 0l0 -66.796875zm12.671875 23.375q0 8.15625 3.234375 12.0625q3.234375 3.890625 7.890625 3.890625q4.46875 0 7.421875 -3.578125q2.96875 -3.578125 2.96875 -11.734375q0 -7.609375 -3.0625 -11.296875q-3.046875 -3.703125 -7.5625 -3.703125q-4.6875 0 -7.796875 3.625q-3.09375 3.625 -3.09375 10.734375zm56.96167 25.015625l-12.796875 0l0 -48.390625l11.890625 0l0 6.875q3.046875 -4.875 5.484375 -6.421875q2.4375 -1.546875 5.546875 -1.546875q4.375 0 8.421875 2.40625l-3.953125 11.171875q-3.25 -2.09375 -6.015625 -2.09375q-2.703125 0 -4.578125 1.484375q-1.859375 1.46875 -2.9375 5.34375q-1.0625 3.875 -1.0625 16.21875l0 14.953125zm21.100845 -24.875q0 -6.390625 3.140625 -12.359375q3.15625 -5.96875 8.921875 -9.109375q5.765625 -3.140625 12.859375 -3.140625q10.984375 0 17.999985 7.140625q7.03125 7.125 7.03125 18.015625q0 10.96875 -7.09375 18.203125q-7.0781097 7.21875 -17.843735 7.21875q-6.640625 0 -12.6875 -3.0q-6.03125 -3.015625 -9.1875 -8.828125q-3.140625 -5.8125 -3.140625 -14.140625zm13.125 0.671875q0 7.203125 3.421875 11.03125q3.421875 3.828125 8.421875 3.828125q5.015625 0 8.40625 -3.828125q3.4062347 -3.828125 3.4062347 -11.109375q0 -7.109375 -3.4062347 -10.9375q-3.390625 -3.828125 -8.40625 -3.828125q-5.0 0 -8.421875 3.828125q-3.421875 3.828125 -3.421875 11.015625zm69.03978 -24.1875l0 10.203125l-8.75 0l0 19.5q0 5.921875 0.25 6.90625q0.25 0.984375 1.140625 1.625q0.890625 0.625 2.171875 0.625q1.765625 0 5.140625 -1.21875l1.09375 9.9375q-4.46875 1.90625 -10.109375 1.90625q-3.46875 0 -6.25 -1.15625q-2.78125 -1.171875 -4.078125 -3.015625q-1.296875 -1.84375 -1.796875 -4.984375q-0.40625 -2.234375 -0.40625 -9.03125l0 -21.09375l-5.890625 0l0 -10.203125l5.890625 0l0 -9.625l12.84375 -7.46875l0 17.09375l8.75 0zm36.907104 32.984375l12.765625 2.140625q-2.453125 7.015625 -7.765625 10.6875q-5.3125 3.671875 -13.28125 3.671875q-12.625 0 -18.6875 -8.25q-4.78125 -6.609375 -4.78125 -16.671875q0 -12.03125 6.28125 -18.84375q6.296875 -6.8125 15.90625 -6.8125q10.796875 0 17.03125 7.140625q6.25 7.125 5.984375 21.84375l-32.078125 0q0.125 5.6875 3.078125 8.859375q2.96875 3.171875 7.390625 3.171875q3.015625 0 5.0625 -1.640625q2.046875 -1.640625 3.09375 -5.296875zm0.734375 -12.9375q-0.140625 -5.5625 -2.875 -8.453125q-2.734375 -2.890625 -6.65625 -2.890625q-4.1875 0 -6.921875 3.046875q-2.734375 3.0625 -2.6875 8.296875l19.140625 0zm23.154663 -26.609375l0 -11.859375l12.796875 0l0 11.859375l-12.796875 0zm0 54.953125l0 -48.390625l12.796875 0l0 48.390625l-12.796875 0zm69.94519 0l-12.796875 0l0 -24.703125q0 -7.828125 -0.828125 -10.125q-0.8125 -2.3125 -2.671875 -3.578125q-1.84375 -1.28125 -4.4375 -1.28125q-3.328125 0 -5.96875 1.828125q-2.640625 1.8125 -3.625 4.828125q-0.984375 3.0 -0.984375 11.109375l0 21.921875l-12.796875 0l0 -48.390625l11.890625 0l0 7.109375q6.328125 -8.203125 15.953125 -8.203125q4.234375 0 7.734375 1.53125q3.515625 1.515625 5.3125 3.890625q1.8125 2.359375 2.515625 5.375q0.703125 3.0 0.703125 8.609375l0 30.078125zm11.539795 -17.8125l0 -12.8125l25.140625 0l0 12.8125l-25.140625 0zm32.57898 -49.0l24.640625 0q8.34375 0 12.71875 1.28125q5.875 1.734375 10.0625 6.15625q4.203125 4.421875 6.390625 10.828125q2.1875 6.390625 2.1875 15.78125q0 8.25 -2.046875 14.21875q-2.515625 7.296875 -7.15625 11.796875q-3.515625 3.421875 -9.484375 5.34375q-4.46875 1.40625 -11.9375 1.40625l-25.375 0l0 -66.8125zm13.484375 11.3125l0 44.25l10.0625 0q5.65625 0 8.171875 -0.640625q3.28125 -0.828125 5.4375 -2.78125q2.171875 -1.96875 3.53125 -6.453125q1.375 -4.484375 1.375 -12.234375q0 -7.75 -1.375 -11.890625q-1.359375 -4.140625 -3.828125 -6.46875q-2.453125 -2.328125 -6.234375 -3.140625q-2.828125 -0.640625 -11.078125 -0.640625l-6.0625 0zm54.08606 55.5l0 -66.8125l13.125 0l27.34375 44.625l0 -44.625l12.53125 0l0 66.8125l-13.53125 0l-26.9375 -43.5625l0 43.5625l-12.53125 0zm127.507935 0l-14.671875 0l-5.828125 -15.171875l-26.703125 0l-5.515625 15.171875l-14.3125 0l26.015625 -66.8125l14.265625 0l26.75 66.8125zm-24.828125 -26.4375l-9.203125 -24.78125l-9.03125 24.78125l18.234375 0zm53.81775 26.4375l0 -66.8125l12.796875 0l0 24.0625q5.921875 -6.734375 14.046875 -6.734375q8.828125 0 14.609375 6.40625q5.796875 6.390625 5.796875 18.375q0 12.40625 -5.90625 19.109375q-5.890625 6.6875 -14.328125 6.6875q-4.140625 0 -8.171875 -2.0625q-4.03125 -2.078125 -6.953125 -6.140625l0 7.109375l-11.890625 0zm12.703125 -25.25q0 7.515625 2.375 11.125q3.328125 5.109375 8.84375 5.109375q4.234375 0 7.21875 -3.625q2.984375 -3.625 2.984375 -11.421875q0 -8.296875 -3.015625 -11.953125q-3.0 -3.671875 -7.6875 -3.671875q-4.609375 0 -7.671875 3.578125q-3.046875 3.578125 -3.046875 10.859375zm44.852295 -29.703125l0 -11.859375l12.796875 0l0 11.859375l-12.796875 0zm0 54.953125l0 -48.390625l12.796875 0l0 48.390625l-12.796875 0zm69.94519 0l-12.796875 0l0 -24.703125q0 -7.828125 -0.828125 -10.125q-0.8125 -2.3125 -2.671875 -3.578125q-1.84375 -1.28125 -4.4375 -1.28125q-3.328125 0 -5.96875 1.828125q-2.640625 1.8125 -3.625 4.828125q-0.984375 3.0 -0.984375 11.109375l0 21.921875l-12.796875 0l0 -48.390625l11.890625 0l0 7.109375q6.328125 -8.203125 15.953125 -8.203125q4.234375 0 7.734375 1.53125q3.515625 1.515625 5.3125 3.890625q1.8125 2.359375 2.515625 5.375q0.703125 3.0 0.703125 8.609375l0 30.078125zm57.36792 0l-11.890625 0l0 -7.109375q-2.953125 4.140625 -7.0 6.171875q-4.03125 2.03125 -8.125 2.03125q-8.34375 0 -14.296875 -6.71875q-5.9375 -6.71875 -5.9375 -18.75q0 -12.3125 5.78125 -18.703125q5.796875 -6.40625 14.640625 -6.40625q8.109375 0 14.03125 6.734375l0 -24.0625l12.796875 0l0 66.8125zm-34.171875 -25.25q0 7.75 2.140625 11.21875q3.09375 5.015625 8.65625 5.015625q4.421875 0 7.515625 -3.765625q3.109375 -3.765625 3.109375 -11.234375q0 -8.34375 -3.015625 -12.0q-3.0 -3.671875 -7.703125 -3.671875q-4.546875 0 -7.625 3.625q-3.078125 3.609375 -3.078125 10.8125zm46.80542 -29.703125l0 -11.859375l12.796875 0l0 11.859375l-12.796875 0zm0 54.953125l0 -48.390625l12.796875 0l0 48.390625l-12.796875 0zm69.94519 0l-12.796875 0l0 -24.703125q0 -7.828125 -0.828125 -10.125q-0.8125 -2.3125 -2.671875 -3.578125q-1.84375 -1.28125 -4.4375 -1.28125q-3.328125 0 -5.96875 1.828125q-2.640625 1.8125 -3.625 4.828125q-0.984375 3.0 -0.984375 11.109375l0 21.921875l-12.796875 0l0 -48.390625l11.890625 0l0 7.109375q6.328125 -8.203125 15.953125 -8.203125q4.234375 0 7.734375 1.53125q3.515625 1.515625 5.3125 3.890625q1.8125 2.359375 2.515625 5.375q0.703125 3.0 0.703125 8.609375l0 30.078125zm11.80542 3.1875l14.625 1.78125q0.359375 2.546875 1.6875 3.5q1.828125 1.375 5.734375 1.375q5.015625 0 7.53125 -1.5q1.6875 -1.0 2.546875 -3.234375q0.59375 -1.59375 0.59375 -5.890625l0 -7.0625q-5.75 7.84375 -14.5 7.84375q-9.75 0 -15.4375 -8.25q-4.46875 -6.515625 -4.46875 -16.21875q0 -12.171875 5.859375 -18.59375q5.859375 -6.421875 14.5625 -6.421875q8.96875 0 14.796875 7.875l0 -6.78125l11.984375 0l0 43.421875q0 8.5625 -1.40625 12.796875q-1.40625 4.25 -3.96875 6.65625q-2.546875 2.421875 -6.8125 3.78125q-4.25 1.375 -10.765625 1.375q-12.3125 0 -17.46875 -4.21875q-5.140625 -4.21875 -5.140625 -10.6875q0 -0.640625 0.046875 -1.546875zm11.4375 -28.390625q0 7.703125 2.984375 11.28125q2.984375 3.578125 7.359375 3.578125q4.6875 0 7.921875 -3.671875q3.25 -3.671875 3.25 -10.859375q0 -7.53125 -3.109375 -11.171875q-3.09375 -3.640625 -7.828125 -3.640625q-4.609375 0 -7.59375 3.578125q-2.984375 3.578125 -2.984375 10.90625z" fill-rule="nonzero"/><path fill="#ffffff" d="m11.1875 620.43317l12.84375 -1.953125q0.828125 3.734375 3.328125 5.671875q2.515625 1.9375 7.015625 1.9375q4.96875 0 7.484375 -1.828125q1.6875 -1.265625 1.6875 -3.40625q0 -1.46875 -0.921875 -2.421875q-0.953125 -0.90625 -4.28125 -1.6875q-15.484375 -3.421875 -19.640625 -6.234375q-5.734375 -3.921875 -5.734375 -10.90625q0 -6.28125 4.96875 -10.5625q4.96875 -4.28125 15.390625 -4.28125q9.9375 0 14.765625 3.234375q4.84375 3.234375 6.65625 9.5625l-12.078125 2.234375q-0.765625 -2.828125 -2.9375 -4.328125q-2.15625 -1.5 -6.171875 -1.5q-5.0625 0 -7.25 1.40625q-1.453125 1.0 -1.453125 2.59375q0 1.375 1.28125 2.328125q1.71875 1.28125 11.953125 3.609375q10.234375 2.3125 14.296875 5.6875q4.0 3.421875 4.0 9.53125q0 6.65625 -5.5625 11.4375q-5.546875 4.78125 -16.453125 4.78125q-9.875 0 -15.640625 -4.0q-5.765625 -4.015625 -7.546875 -10.90625zm56.045288 -34.578125l11.953125 0l0 7.109375q2.3125 -3.65625 6.28125 -5.921875q3.96875 -2.28125 8.796875 -2.28125q8.421875 0 14.296875 6.609375q5.890625 6.59375 5.890625 18.40625q0 12.125 -5.921875 18.84375q-5.921875 6.71875 -14.359375 6.71875q-4.015625 0 -7.28125 -1.59375q-3.25 -1.59375 -6.84375 -5.46875l0 24.375l-12.8125 0l0 -66.796875zm12.671875 23.375q0 8.15625 3.234375 12.0625q3.234375 3.890625 7.890625 3.890625q4.46875 0 7.421875 -3.578125q2.96875 -3.578125 2.96875 -11.734375q0 -7.609375 -3.0625 -11.296875q-3.046875 -3.703125 -7.5625 -3.703125q-4.6875 0 -7.796875 3.625q-3.09375 3.625 -3.09375 10.734375zm72.727295 9.609375l12.765625 2.140625q-2.453125 7.015625 -7.765625 10.6875q-5.3125 3.671875 -13.28125 3.671875q-12.625 0 -18.6875 -8.25q-4.78125 -6.609375 -4.78125 -16.671875q0 -12.03125 6.28125 -18.84375q6.296875 -6.8125 15.90625 -6.8125q10.796875 0 17.03125 7.140625q6.25 7.125 5.984375 21.84375l-32.078125 0q0.125 5.6875 3.078125 8.859375q2.96875 3.171875 7.390625 3.171875q3.015625 0 5.0625 -1.640625q2.046875 -1.640625 3.09375 -5.296875zm0.734375 -12.9375q-0.140625 -5.5625 -2.875 -8.453125q-2.734375 -2.890625 -6.65625 -2.890625q-4.1875 0 -6.921875 3.046875q-2.734375 3.0625 -2.6875 8.296875l19.140625 0zm65.34216 -5.75l-12.609375 2.28125q-0.640625 -3.78125 -2.90625 -5.6875q-2.25 -1.921875 -5.84375 -1.921875q-4.796875 0 -7.640625 3.3125q-2.84375 3.296875 -2.84375 11.046875q0 8.609375 2.890625 12.171875q2.890625 3.546875 7.765625 3.546875q3.65625 0 5.96875 -2.0625q2.328125 -2.078125 3.28125 -7.140625l12.578125 2.140625q-1.953125 8.65625 -7.515625 13.078125q-5.5625 4.421875 -14.90625 4.421875q-10.609375 0 -16.921875 -6.6875q-6.3125 -6.703125 -6.3125 -18.5625q0 -11.984375 6.328125 -18.65625q6.34375 -6.671875 17.140625 -6.671875q8.84375 0 14.0625 3.8125q5.21875 3.796875 7.484375 11.578125zm9.717163 -20.859375l0 -11.859375l12.796875 0l0 11.859375l-12.796875 0zm0 54.953125l0 -48.390625l12.796875 0l0 48.390625l-12.796875 0zm20.320175 -48.390625l7.109375 0l0 -3.65625q0 -6.09375 1.2968903 -9.09375q1.296875 -3.015625 4.78125 -4.90625q3.484375 -1.90625 8.828125 -1.90625q5.46875 0 10.703125 1.640625l-1.734375 8.9375q-3.046875 -0.734375 -5.875 -0.734375q-2.78125 0 -3.984375 1.3125q-1.203125 1.296875 -1.203125 4.984375l0 3.421875l9.5625 0l0 10.0625l-9.5625 0l0 38.328125l-12.812515 0l0 -38.328125l-7.109375 0l0 -10.0625zm36.68837 -6.5625l0 -11.859375l12.796875 0l0 11.859375l-12.796875 0zm0 54.953125l0 -48.390625l12.796875 0l0 48.390625l-12.796875 0zm68.117065 -34.09375l-12.609375 2.28125q-0.640625 -3.78125 -2.90625 -5.6875q-2.25 -1.921875 -5.84375 -1.921875q-4.796875 0 -7.640625 3.3125q-2.84375 3.296875 -2.84375 11.046875q0 8.609375 2.890625 12.171875q2.890625 3.546875 7.765625 3.546875q3.65625 0 5.96875 -2.0625q2.328125 -2.078125 3.28125 -7.140625l12.578125 2.140625q-1.953125 8.65625 -7.515625 13.078125q-5.5625 4.421875 -14.90625 4.421875q-10.609375 0 -16.921875 -6.6875q-6.3125 -6.703125 -6.3125 -18.5625q0 -11.984375 6.328125 -18.65625q6.34375 -6.671875 17.140625 -6.671875q8.84375 0 14.0625 3.8125q5.21875 3.796875 7.484375 11.578125zm9.717163 -20.859375l0 -11.859375l12.796875 0l0 11.859375l-12.796875 0zm0 54.953125l0 -48.390625l12.796875 0l0 48.390625l-12.796875 0zm48.117065 -48.390625l0 10.203125l-8.75 0l0 19.5q0 5.921875 0.25 6.90625q0.25 0.984375 1.140625 1.625q0.890625 0.625 2.171875 0.625q1.765625 0 5.140625 -1.21875l1.09375 9.9375q-4.46875 1.90625 -10.109375 1.90625q-3.46875 0 -6.25 -1.15625q-2.78125 -1.171875 -4.078125 -3.015625q-1.296875 -1.84375 -1.796875 -4.984375q-0.40625 -2.234375 -0.40625 -9.03125l0 -21.09375l-5.890625 0l0 -10.203125l5.890625 0l0 -9.625l12.84375 -7.46875l0 17.09375l8.75 0zm2.8289795 0l13.625 0l11.578125 34.359375l11.296875 -34.359375l13.265625 0l-17.09375 46.5625l-3.046875 8.4375q-1.6875 4.234375 -3.21875 6.46875q-1.53125 2.234375 -3.515625 3.625q-1.96875 1.390625 -4.875 2.15625q-2.890625 0.78125 -6.53125 0.78125q-3.6875 0 -7.25 -0.78125l-1.140625 -10.015625q3.015625 0.59375 5.421875 0.59375q4.46875 0 6.609375 -2.625q2.140625 -2.625 3.28125 -6.671875l-18.40625 -48.53125zm51.0401 48.390625l0 -12.8125l12.796875 0l0 12.8125l-12.796875 0z" fill-rule="nonzero"/></g></svg>